<svg width="160" height="73" viewBox="0 0 160 73" fill="none" xmlns="http://www.w3.org/2000/svg">
<path d="M2.12921 70.4234L2.45423 68.4195L2.60548 69.1062L1.00116 65.5189H2.22201L3.45051 68.2724H2.74781L4.87664 65.5189H6.00522L3.2372 69.1062L3.60409 68.4195L3.27908 70.4234H2.12921ZM7.87561 70.5074C7.48286 70.5074 7.12872 70.4444 6.81321 70.3183C6.50243 70.1922 6.24257 70.0147 6.03363 69.7858C5.82942 69.5569 5.68371 69.2883 5.59648 68.9801C5.51399 68.6718 5.50229 68.3355 5.56139 67.9711C5.62048 67.6068 5.74128 67.2705 5.92377 66.9622C6.111 66.6539 6.34621 66.3854 6.6294 66.1565C6.91258 65.9276 7.23002 65.7501 7.58171 65.624C7.93341 65.4979 8.30327 65.4348 8.69129 65.4348C9.08404 65.4348 9.43344 65.4979 9.73949 65.624C10.0503 65.7501 10.3078 65.9276 10.512 66.1565C10.7209 66.3854 10.869 66.6539 10.9562 66.9622C11.0442 67.2658 11.0583 67.6021 10.9984 67.9711C10.9393 68.3355 10.8158 68.6741 10.6278 68.9871C10.4406 69.2953 10.2054 69.5639 9.92217 69.7928C9.64447 70.017 9.32978 70.1922 8.97808 70.3183C8.63112 70.4444 8.26363 70.5074 7.87561 70.5074ZM8.02534 69.5406C8.24774 69.5406 8.45728 69.5032 8.65395 69.4285C8.85535 69.3537 9.03839 69.2463 9.20308 69.1062C9.36777 68.966 9.5035 68.8002 9.61027 68.6087C9.72178 68.4172 9.79647 68.2047 9.83435 67.9711C9.87223 67.7376 9.86648 67.5251 9.8171 67.3336C9.77245 67.142 9.69051 66.9762 9.57128 66.8361C9.45678 66.696 9.31095 66.5885 9.1338 66.5138C8.95664 66.4391 8.75686 66.4017 8.53446 66.4017C8.31206 66.4017 8.10016 66.4391 7.89875 66.5138C7.70209 66.5885 7.52141 66.696 7.35672 66.8361C7.19203 66.9762 7.05394 67.142 6.94243 67.3336C6.83566 67.5251 6.76333 67.7376 6.72545 67.9711C6.68833 68.2 6.69171 68.4125 6.7356 68.6087C6.78498 68.8002 6.86692 68.966 6.98142 69.1062C7.10065 69.2463 7.24884 69.3537 7.426 69.4285C7.60316 69.5032 7.80294 69.5406 8.02534 69.5406ZM13.6587 70.5074C12.9536 70.5074 12.4338 70.3136 12.0992 69.9259C11.7646 69.5382 11.6556 68.9847 11.7723 68.2654L12.2177 65.5189H13.3676L12.929 68.2234C12.8532 68.6905 12.8957 69.0268 13.0563 69.2323C13.217 69.4378 13.4724 69.5406 13.8226 69.5406C14.1728 69.5406 14.4615 69.4378 14.6889 69.2323C14.9162 69.0268 15.0678 68.6905 15.1435 68.2234L15.5822 65.5189H16.7178L16.2724 68.2654C16.1557 68.9847 15.8672 69.5382 15.4068 69.9259C14.9464 70.3136 14.3637 70.5074 13.6587 70.5074ZM17.0586 70.4234L17.8541 65.5189H20.0048C20.4496 65.5189 20.8212 65.5913 21.1194 65.7361C21.4185 65.8762 21.634 66.0794 21.7659 66.3457C21.8978 66.6119 21.9338 66.9295 21.8739 67.2985C21.8148 67.6629 21.6762 67.9781 21.4579 68.2444C21.2404 68.506 20.9594 68.7068 20.6149 68.8469C20.2704 68.9871 19.8757 69.0571 19.4309 69.0571H17.9191L18.5108 68.5597L18.2085 70.4234H17.0586ZM20.2172 70.4234L19.2637 68.6437H20.4917L21.4594 70.4234H20.2172ZM18.4903 68.6858L18.0656 68.1533H19.5136C19.8685 68.1533 20.1456 68.0786 20.345 67.9291C20.5451 67.775 20.6667 67.5648 20.7099 67.2985C20.7538 67.0276 20.7004 66.8174 20.5495 66.6679C20.3987 66.5185 20.1458 66.4437 19.7909 66.4437H18.3429L18.9415 65.9043L18.4903 68.6858ZM26.6525 70.5074C26.2692 70.5074 25.9218 70.4467 25.6102 70.3253C25.3042 70.1992 25.049 70.0217 24.8448 69.7928C24.6406 69.5639 24.4949 69.2953 24.4077 68.9871C24.3252 68.6788 24.3139 68.3401 24.3737 67.9711C24.4336 67.6021 24.5547 67.2635 24.7372 66.9552C24.9245 66.6469 25.1573 66.3784 25.4358 66.1495C25.719 65.9206 26.0336 65.7454 26.3799 65.624C26.7268 65.4979 27.0943 65.4348 27.4823 65.4348C27.9129 65.4348 28.2888 65.5096 28.61 65.659C28.9367 65.8038 29.1952 66.0187 29.3856 66.3036L28.5383 66.9762C28.399 66.7847 28.2329 66.6423 28.0398 66.5488C27.8475 66.4508 27.6283 66.4017 27.3823 66.4017C27.1504 66.4017 26.9314 66.4391 26.7253 66.5138C26.5192 66.5885 26.3337 66.696 26.1691 66.8361C26.0044 66.9762 25.8663 67.142 25.7548 67.3336C25.648 67.5251 25.5757 67.7376 25.5378 67.9711C25.4999 68.2047 25.5033 68.4172 25.5479 68.6087C25.5973 68.8002 25.6816 68.966 25.8009 69.1062C25.9201 69.2463 26.0706 69.3537 26.2525 69.4285C26.4344 69.5032 26.6413 69.5406 26.8732 69.5406C27.1192 69.5406 27.3539 69.4939 27.5773 69.4004C27.8014 69.3023 28.0146 69.1552 28.2167 68.959L28.8458 69.6316C28.563 69.9166 28.2344 70.1338 27.86 70.2832C27.4903 70.4327 27.0878 70.5074 26.6525 70.5074ZM28.7508 70.4234L31.7608 65.5189H32.8965L34.3227 70.4234H33.116L32.0013 66.0934H32.4555L29.929 70.4234H28.7508ZM30.0285 69.3724L30.4735 68.5106H33.0288L33.2013 69.3724H30.0285ZM34.8382 70.4234L35.6337 65.5189H37.7843C38.2291 65.5189 38.6007 65.5913 38.899 65.7361C39.198 65.8762 39.4135 66.0794 39.5454 66.3457C39.6773 66.6119 39.7133 66.9295 39.6535 67.2985C39.5944 67.6629 39.4557 67.9781 39.2374 68.2444C39.0199 68.506 38.7389 68.7068 38.3944 68.8469C38.0499 68.9871 37.6552 69.0571 37.2104 69.0571H35.6986L36.2903 68.5597L35.988 70.4234H34.8382ZM37.9967 70.4234L37.0433 68.6437H38.2712L39.2389 70.4234H37.9967ZM36.2699 68.6858L35.8452 68.1533H37.2932C37.6481 68.1533 37.9252 68.0786 38.1245 67.9291C38.3246 67.775 38.4462 67.5648 38.4894 67.2985C38.5333 67.0276 38.4799 66.8174 38.329 66.6679C38.1782 66.5185 37.9253 66.4437 37.5704 66.4437H36.1225L36.721 65.9043L36.2699 68.6858ZM42.4431 70.5074C42.0504 70.5074 41.6982 70.4467 41.3867 70.3253C41.0806 70.1992 40.8231 70.0217 40.6142 69.7928C40.41 69.5639 40.2643 69.2953 40.177 68.9871C40.0946 68.6788 40.0832 68.3401 40.1431 67.9711C40.2029 67.6021 40.3241 67.2635 40.5066 66.9552C40.6938 66.6469 40.929 66.3784 41.2122 66.1495C41.4954 65.9206 41.8125 65.7454 42.1634 65.624C42.5151 65.4979 42.8897 65.4348 43.2872 65.4348C43.7273 65.4348 44.1106 65.5072 44.4373 65.652C44.7687 65.7968 45.0327 66.007 45.2294 66.2826L44.3821 66.9552C44.2326 66.7684 44.0586 66.6306 43.86 66.5418C43.6622 66.4484 43.4379 66.4017 43.1871 66.4017C42.9458 66.4017 42.7197 66.4391 42.5088 66.5138C42.298 66.5885 42.1078 66.696 41.9384 66.8361C41.7737 66.9762 41.6356 67.142 41.5241 67.3336C41.4174 67.5251 41.345 67.7376 41.3071 67.9711C41.27 68.2 41.2738 68.4102 41.3184 68.6017C41.3678 68.7932 41.4517 68.9614 41.5702 69.1062C41.6942 69.2463 41.8471 69.3537 42.029 69.4285C42.2156 69.5032 42.4272 69.5406 42.6638 69.5406C42.891 69.5406 43.1167 69.5055 43.341 69.4355C43.5708 69.3607 43.8014 69.237 44.0329 69.0641L44.553 69.8839C44.2507 70.0847 43.911 70.2389 43.5339 70.3463C43.1616 70.4537 42.798 70.5074 42.4431 70.5074ZM43.5263 69.7367L43.8252 67.8941H44.8757L44.553 69.8839L43.5263 69.7367ZM47.9333 70.5074C47.5405 70.5074 47.1864 70.4444 46.8709 70.3183C46.5601 70.1922 46.3002 70.0147 46.0913 69.7858C45.8871 69.5569 45.7414 69.2883 45.6541 68.9801C45.5716 68.6718 45.5599 68.3355 45.619 67.9711C45.6781 67.6068 45.7989 67.2705 45.9814 66.9622C46.1687 66.6539 46.4039 66.3854 46.6871 66.1565C46.9702 65.9276 47.2877 65.7501 47.6394 65.624C47.9911 65.4979 48.3609 65.4348 48.7489 65.4348C49.1417 65.4348 49.4911 65.4979 49.7971 65.624C50.1079 65.7501 50.3654 65.9276 50.5696 66.1565C50.7786 66.3854 50.9266 66.6539 51.0139 66.9622C51.1019 67.2658 51.1159 67.6021 51.0561 67.9711C50.997 68.3355 50.8734 68.6741 50.6854 68.9871C50.4982 69.2953 50.263 69.5639 49.9798 69.7928C49.7021 70.017 49.3874 70.1922 49.0357 70.3183C48.6888 70.4444 48.3213 70.5074 47.9333 70.5074ZM48.083 69.5406C48.3054 69.5406 48.5149 69.5032 48.7116 69.4285C48.913 69.3537 49.096 69.2463 49.2607 69.1062C49.4254 68.966 49.5612 68.8002 49.6679 68.6087C49.7794 68.4172 49.8541 68.2047 49.892 67.9711C49.9299 67.7376 49.9241 67.5251 49.8748 67.3336C49.8301 67.142 49.7482 66.9762 49.6289 66.8361C49.5144 66.696 49.3686 66.5885 49.1915 66.5138C49.0143 66.4391 48.8145 66.4017 48.5921 66.4017C48.3697 66.4017 48.1578 66.4391 47.9564 66.5138C47.7597 66.5885 47.5791 66.696 47.4144 66.8361C47.2497 66.9762 47.1116 67.142 47.0001 67.3336C46.8933 67.5251 46.821 67.7376 46.7831 67.9711C46.746 68.2 46.7494 68.4125 46.7933 68.6087C46.8426 68.8002 46.9246 68.966 47.0391 69.1062C47.1583 69.2463 47.3065 69.3537 47.4837 69.4285C47.6608 69.5032 47.8606 69.5406 48.083 69.5406ZM50.9391 71.5024L51.6803 69.8208L51.7342 70.4514C51.5307 70.4514 51.3722 70.393 51.2587 70.2762C51.1498 70.1595 51.1121 69.9983 51.1454 69.7928C51.1788 69.5873 51.2715 69.4238 51.4237 69.3023C51.5759 69.1809 51.749 69.1202 51.943 69.1202C52.1418 69.1202 52.2948 69.1832 52.4021 69.3094C52.5102 69.4308 52.5479 69.5919 52.5153 69.7928C52.5055 69.8535 52.4909 69.9142 52.4716 69.975C52.453 70.031 52.4228 70.1011 52.3807 70.1852C52.3442 70.2646 52.2873 70.3673 52.2101 70.4934L51.6418 71.5024H50.9391ZM57.6514 70.5074C57.2586 70.5074 56.9045 70.4444 56.589 70.3183C56.2782 70.1922 56.0183 70.0147 55.8094 69.7858C55.6052 69.5569 55.4594 69.2883 55.3722 68.9801C55.2897 68.6718 55.278 68.3355 55.3371 67.9711C55.3962 67.6068 55.517 67.2705 55.6995 66.9622C55.8867 66.6539 56.122 66.3854 56.4051 66.1565C56.6883 65.9276 57.0058 65.7501 57.3575 65.624C57.7091 65.4979 58.079 65.4348 58.467 65.4348C58.8598 65.4348 59.2092 65.4979 59.5152 65.624C59.826 65.7501 60.0835 65.9276 60.2877 66.1565C60.4967 66.3854 60.6447 66.6539 60.732 66.9622C60.8199 67.2658 60.834 67.6021 60.7742 67.9711C60.7151 68.3355 60.5915 68.6741 60.4035 68.9871C60.2163 69.2953 59.9811 69.5639 59.6979 69.7928C59.4202 70.017 59.1055 70.1922 58.7538 70.3183C58.4069 70.4444 58.0394 70.5074 57.6514 70.5074ZM57.8011 69.5406C58.0235 69.5406 58.233 69.5032 58.4297 69.4285C58.6311 69.3537 58.8141 69.2463 58.9788 69.1062C59.1435 68.966 59.2792 68.8002 59.386 68.6087C59.4975 68.4172 59.5722 68.2047 59.6101 67.9711C59.648 67.7376 59.6422 67.5251 59.5928 67.3336C59.5482 67.142 59.4663 66.9762 59.347 66.8361C59.2325 66.696 59.0867 66.5885 58.9095 66.5138C58.7324 66.4391 58.5326 66.4017 58.3102 66.4017C58.0878 66.4017 57.8759 66.4391 57.6745 66.5138C57.4778 66.5885 57.2971 66.696 57.1325 66.8361C56.9678 66.9762 56.8297 67.142 56.7182 67.3336C56.6114 67.5251 56.5391 67.7376 56.5012 67.9711C56.4641 68.2 56.4675 68.4125 56.5113 68.6087C56.5607 68.8002 56.6427 68.966 56.7572 69.1062C56.8764 69.2463 57.0246 69.3537 57.2017 69.4285C57.3789 69.5032 57.5787 69.5406 57.8011 69.5406ZM63.4344 70.5074C62.7293 70.5074 62.2095 70.3136 61.8749 69.9259C61.5403 69.5382 61.4313 68.9847 61.548 68.2654L61.9935 65.5189H63.1434L62.7047 68.2234C62.6289 68.6905 62.6714 69.0268 62.8321 69.2323C62.9927 69.4378 63.2482 69.5406 63.5983 69.5406C63.9485 69.5406 64.2373 69.4378 64.4646 69.2323C64.6919 69.0268 64.8435 68.6905 64.9193 68.2234L65.3579 65.5189H66.4936L66.0481 68.2654C65.9314 68.9847 65.6429 69.5382 65.1826 69.9259C64.7222 70.3136 64.1395 70.5074 63.4344 70.5074ZM66.8344 70.4234L67.6299 65.5189H69.7806C70.2254 65.5189 70.5969 65.5913 70.8952 65.7361C71.1942 65.8762 71.4097 66.0794 71.5416 66.3457C71.6735 66.6119 71.7095 66.9295 71.6497 67.2985C71.5906 67.6629 71.4519 67.9781 71.2336 68.2444C71.0161 68.506 70.7351 68.7068 70.3906 68.8469C70.0461 68.9871 69.6515 69.0571 69.2067 69.0571H67.6948L68.2865 68.5597L67.9842 70.4234H66.8344ZM69.993 70.4234L69.0395 68.6437H70.2674L71.2351 70.4234H69.993ZM68.2661 68.6858L67.8414 68.1533H69.2894C69.6443 68.1533 69.9214 68.0786 70.1207 67.9291C70.3208 67.775 70.4424 67.5648 70.4856 67.2985C70.5296 67.0276 70.4761 66.8174 70.3253 66.6679C70.1744 66.5185 69.9216 66.4437 69.5667 66.4437H68.1187L68.7172 65.9043L68.2661 68.6858ZM76.4637 70.5074C76.0709 70.5074 75.7168 70.4444 75.4013 70.3183C75.0905 70.1922 74.8306 70.0147 74.6217 69.7858C74.4175 69.5569 74.2718 69.2883 74.1846 68.9801C74.1021 68.6718 74.0904 68.3355 74.1495 67.9711C74.2086 67.6068 74.3293 67.2705 74.5118 66.9622C74.6991 66.6539 74.9343 66.3854 75.2175 66.1565C75.5007 65.9276 75.8181 65.7501 76.1698 65.624C76.5215 65.4979 76.8913 65.4348 77.2794 65.4348C77.6721 65.4348 78.0215 65.4979 78.3276 65.624C78.6383 65.7501 78.8958 65.9276 79.1 66.1565C79.309 66.3854 79.4571 66.6539 79.5443 66.9622C79.6323 67.2658 79.6463 67.6021 79.5865 67.9711C79.5274 68.3355 79.4039 68.6741 79.2159 68.9871C79.0286 69.2953 78.7934 69.5639 78.5102 69.7928C78.2325 70.017 77.9178 70.1922 77.5662 70.3183C77.2192 70.4444 76.8517 70.5074 76.4637 70.5074ZM76.6134 69.5406C76.8358 69.5406 77.0453 69.5032 77.242 69.4285C77.4434 69.3537 77.6265 69.2463 77.7912 69.1062C77.9558 68.966 78.0916 68.8002 78.1983 68.6087C78.3098 68.4172 78.3845 68.2047 78.4224 67.9711C78.4603 67.7376 78.4546 67.5251 78.4052 67.3336C78.3605 67.142 78.2786 66.9762 78.1594 66.8361C78.0449 66.696 77.899 66.5885 77.7219 66.5138C77.5447 66.4391 77.3449 66.4017 77.1225 66.4017C76.9001 66.4017 76.6882 66.4391 76.4868 66.5138C76.2902 66.5885 76.1095 66.696 75.9448 66.8361C75.7801 66.9762 75.642 67.142 75.5305 67.3336C75.4237 67.5251 75.3514 67.7376 75.3135 67.9711C75.2764 68.2 75.2798 68.4125 75.3237 68.6087C75.3731 68.8002 75.455 68.966 75.5695 69.1062C75.6887 69.2463 75.8369 69.3537 76.0141 69.4285C76.1912 69.5032 76.391 69.5406 76.6134 69.5406ZM80.0529 70.4234L80.8484 65.5189H81.7995L83.3533 68.9801H82.8494L85.4905 65.5189H86.4345L85.6532 70.4234H84.5743L85.0979 67.1514H85.2967L83.1891 69.9049H82.671L81.4212 67.1514H81.6625L81.1318 70.4234H80.0529ZM86.832 70.4234L87.6275 65.5189H88.5786L90.1324 68.9801H89.6285L92.2696 65.5189H93.2136L92.4323 70.4234H91.3534L91.877 67.1514H92.0758L89.9682 69.9049H89.4501L88.2003 67.1514H88.4416L87.9109 70.4234H86.832ZM93.6111 70.4234L94.4066 65.5189H95.5565L94.761 70.4234H93.6111ZM96.9693 70.4234L97.6148 66.4437H96.0249L96.1749 65.5189H100.505L100.355 66.4437H98.7647L98.1192 70.4234H96.9693ZM100.328 70.4234L101.123 65.5189H102.074L103.628 68.9801H103.124L105.765 65.5189H106.709L105.928 70.4234H104.849L105.373 67.1514H105.572L103.464 69.9049H102.946L101.696 67.1514H101.937L101.407 70.4234H100.328ZM108.64 67.4947H111.032L110.888 68.3775H108.496L108.64 67.4947ZM108.397 69.5125H111.102L110.954 70.4234H107.107L107.902 65.5189H111.657L111.509 66.4297H108.897L108.397 69.5125ZM111.869 70.4234L112.664 65.5189H113.616L115.974 69.0501H115.513L116.086 65.5189H117.221L116.426 70.4234H115.482L113.116 66.8922H113.577L113.005 70.4234H111.869ZM118.631 70.4234L119.276 66.4437H117.686L117.836 65.5189H122.166L122.016 66.4437H120.426L119.78 70.4234H118.631ZM122.085 70.4794C121.896 70.4794 121.743 70.4164 121.626 70.2902C121.515 70.1595 121.475 69.9936 121.508 69.7928C121.54 69.5919 121.633 69.4308 121.785 69.3094C121.943 69.1832 122.116 69.1202 122.305 69.1202C122.499 69.1202 122.652 69.1832 122.765 69.3094C122.877 69.4308 122.917 69.5919 122.885 69.7928C122.852 69.9936 122.759 70.1595 122.605 70.2902C122.452 70.4164 122.279 70.4794 122.085 70.4794Z" fill="#153169"/>
<path fill-rule="evenodd" clip-rule="evenodd" d="M155.513 19.2329L146.361 25.7581L158.22 19.2329L150.603 12.1328L155.513 19.2329Z" fill="#159947"/>
<path fill-rule="evenodd" clip-rule="evenodd" d="M138.758 27.7303L151.108 19.2916L144.867 10.4209L138.758 27.7303Z" fill="#159947"/>
<path fill-rule="evenodd" clip-rule="evenodd" d="M141.175 15.6143H64.2433H33.0538L30.6768 22.4096V22.4116H138.716L141.175 15.6143Z" fill="#159947"/>
<path d="M125.931 15.6138L131.356 0.302734H75.479L70.1239 15.6138H90.6309H125.931ZM67.7466 22.4108L54.4189 60.5165H74.7194L80.0546 45.4606H106.67L112.095 30.1489H85.4802L88.2222 22.4108H67.7466Z" fill="#153169"/>
<path fill-rule="evenodd" clip-rule="evenodd" d="M22.855 0.302099H22.9789H38.4091H69.6979L67.6595 6.15338C67.4947 6.62625 67.3162 7.08447 67.1231 7.52903L64.2429 15.6131H33.0537L30.6727 22.4205H62.3567L57.0875 37.546H25.3829L22.6392 45.3903H53.9906L48.7217 60.5159H17.3497H2.00339H1.79492L22.8557 0.301758L22.855 0.302099Z" fill="#153169"/>
<path d="M106.81 60.6631H154.293L159.871 44.9214H132.688L148.436 0.302734H128.135L106.81 60.6631Z" fill="#153169"/>
</svg>
